<mxfile host="app.diagrams.net" agent="Mozilla/5.0 (Windows NT 10.0; Win64; x64) AppleWebKit/537.36 (KHTML, like Gecko) Chrome/129.0.0.0 Safari/537.36" version="24.7.17">
  <diagram name="Page-1" id="9kjqJs9BznTvYSPyJDCG">
    <mxGraphModel dx="1050" dy="565" grid="1" gridSize="10" guides="1" tooltips="1" connect="1" arrows="1" fold="1" page="1" pageScale="1" pageWidth="850" pageHeight="1100" math="0" shadow="0">
      <root>
        <mxCell id="0" />
        <mxCell id="1" parent="0" />
        <mxCell id="vvcyjGvF8wjeZNIja5YO-3" value="" style="edgeStyle=orthogonalEdgeStyle;rounded=0;orthogonalLoop=1;jettySize=auto;html=1;" edge="1" parent="1" source="vvcyjGvF8wjeZNIja5YO-1" target="vvcyjGvF8wjeZNIja5YO-2">
          <mxGeometry relative="1" as="geometry" />
        </mxCell>
        <mxCell id="vvcyjGvF8wjeZNIja5YO-1" value="start" style="ellipse;whiteSpace=wrap;html=1;" vertex="1" parent="1">
          <mxGeometry x="330" y="90" width="120" height="80" as="geometry" />
        </mxCell>
        <mxCell id="vvcyjGvF8wjeZNIja5YO-5" value="" style="edgeStyle=orthogonalEdgeStyle;rounded=0;orthogonalLoop=1;jettySize=auto;html=1;" edge="1" parent="1" source="vvcyjGvF8wjeZNIja5YO-2" target="vvcyjGvF8wjeZNIja5YO-4">
          <mxGeometry relative="1" as="geometry" />
        </mxCell>
        <mxCell id="vvcyjGvF8wjeZNIja5YO-2" value="int limit" style="shape=parallelogram;perimeter=parallelogramPerimeter;whiteSpace=wrap;html=1;fixedSize=1;" vertex="1" parent="1">
          <mxGeometry x="330" y="210" width="120" height="60" as="geometry" />
        </mxCell>
        <mxCell id="vvcyjGvF8wjeZNIja5YO-7" value="true" style="edgeStyle=orthogonalEdgeStyle;rounded=0;orthogonalLoop=1;jettySize=auto;html=1;" edge="1" parent="1" source="vvcyjGvF8wjeZNIja5YO-4" target="vvcyjGvF8wjeZNIja5YO-6">
          <mxGeometry relative="1" as="geometry" />
        </mxCell>
        <mxCell id="vvcyjGvF8wjeZNIja5YO-9" value="false" style="edgeStyle=orthogonalEdgeStyle;rounded=0;orthogonalLoop=1;jettySize=auto;html=1;" edge="1" parent="1" source="vvcyjGvF8wjeZNIja5YO-4" target="vvcyjGvF8wjeZNIja5YO-8">
          <mxGeometry relative="1" as="geometry" />
        </mxCell>
        <mxCell id="vvcyjGvF8wjeZNIja5YO-4" value="int i=2;i&amp;lt;=num;i++" style="shape=hexagon;perimeter=hexagonPerimeter2;whiteSpace=wrap;html=1;fixedSize=1;" vertex="1" parent="1">
          <mxGeometry x="330" y="340" width="120" height="80" as="geometry" />
        </mxCell>
        <mxCell id="vvcyjGvF8wjeZNIja5YO-11" value="true" style="edgeStyle=orthogonalEdgeStyle;rounded=0;orthogonalLoop=1;jettySize=auto;html=1;" edge="1" parent="1" source="vvcyjGvF8wjeZNIja5YO-6" target="vvcyjGvF8wjeZNIja5YO-10">
          <mxGeometry relative="1" as="geometry" />
        </mxCell>
        <mxCell id="vvcyjGvF8wjeZNIja5YO-6" value="num%i!=0" style="rhombus;whiteSpace=wrap;html=1;" vertex="1" parent="1">
          <mxGeometry x="550" y="340" width="80" height="80" as="geometry" />
        </mxCell>
        <mxCell id="vvcyjGvF8wjeZNIja5YO-8" value="end" style="ellipse;whiteSpace=wrap;html=1;" vertex="1" parent="1">
          <mxGeometry x="340" y="500" width="110" height="80" as="geometry" />
        </mxCell>
        <mxCell id="vvcyjGvF8wjeZNIja5YO-15" value="true" style="edgeStyle=orthogonalEdgeStyle;rounded=0;orthogonalLoop=1;jettySize=auto;html=1;entryX=1;entryY=0.25;entryDx=0;entryDy=0;" edge="1" parent="1" source="vvcyjGvF8wjeZNIja5YO-10" target="vvcyjGvF8wjeZNIja5YO-4">
          <mxGeometry relative="1" as="geometry">
            <Array as="points">
              <mxPoint x="750" y="280" />
              <mxPoint x="441" y="280" />
            </Array>
          </mxGeometry>
        </mxCell>
        <mxCell id="vvcyjGvF8wjeZNIja5YO-10" value="sadedir" style="shape=document;whiteSpace=wrap;html=1;boundedLbl=1;" vertex="1" parent="1">
          <mxGeometry x="690" y="340" width="120" height="80" as="geometry" />
        </mxCell>
        <mxCell id="vvcyjGvF8wjeZNIja5YO-14" value="false" style="edgeStyle=orthogonalEdgeStyle;rounded=0;orthogonalLoop=1;jettySize=auto;html=1;entryX=0.887;entryY=0.103;entryDx=0;entryDy=0;entryPerimeter=0;" edge="1" parent="1" source="vvcyjGvF8wjeZNIja5YO-6" target="vvcyjGvF8wjeZNIja5YO-4">
          <mxGeometry relative="1" as="geometry">
            <Array as="points">
              <mxPoint x="590" y="340" />
              <mxPoint x="590" y="340" />
            </Array>
          </mxGeometry>
        </mxCell>
      </root>
    </mxGraphModel>
  </diagram>
</mxfile>
